<svg preserveAspectRatio="none" width="100%" height="100%" overflow="visible" style="display: block;" viewBox="0 0 17.1309 9.88099" fill="none" xmlns="http://www.w3.org/2000/svg">
<path id="Vector" d="M2.10483 9.88099H0V0.194892H1.92942V3.11826H2.04636C2.29972 1.50066 3.35214 0 5.76879 0C7.97106 0 9.15989 1.34475 9.43274 3.19622H9.54967C9.80303 1.53964 10.8944 0 13.3501 0C15.8642 0 17.1309 1.71504 17.1309 4.05374V9.88099H15.0456V4.61892C15.0456 2.70899 14.2855 1.89045 12.4146 1.89045C10.3487 1.89045 9.60815 2.94286 9.60815 5.08666V9.88099H7.5228V4.61892C7.5228 2.70899 6.78222 1.89045 4.91126 1.89045C2.82593 1.89045 2.10483 2.94286 2.10483 5.08666V9.88099Z" fill="var(--fill-0, white)"/>
</svg>
