<svg preserveAspectRatio="none" width="100%" height="100%" overflow="visible" style="display: block;" viewBox="0 0 28.9153 13.9512" fill="none" xmlns="http://www.w3.org/2000/svg">
<path id="Rectangle 15" d="M0 2V11.9512C0 13.0558 0.895431 13.9512 2 13.9512H2.4695C4.02046 13.9512 4.98121 12.2624 4.18866 10.9292L2.37055 7.8709C1.578 6.53773 2.53875 4.84889 4.08971 4.84889H4.62221C6.04811 4.84889 7.3662 5.60795 8.08188 6.84125L10.812 11.5459C11.6455 12.9822 13.1804 13.8661 14.841 13.8661C16.2881 13.8661 17.1829 12.2884 16.44 11.0464L14.5434 7.87553C13.7461 6.54243 14.7065 4.84889 16.2598 4.84889H16.3587C18.1411 4.84889 19.7887 5.79772 20.6833 7.33933L23.3147 11.8738C24.0303 13.1071 25.3484 13.8661 26.7743 13.8661H26.9123C28.4656 13.8661 29.426 12.1726 28.6287 10.8395L23.8918 2.9201C22.8085 1.10886 20.8531 0 18.7426 0H16.901C15.5426 0 14.2868 0.723139 13.605 1.89807C13.0221 2.90264 11.564 2.89428 10.9678 1.89751C10.2694 0.72998 8.99995 0 7.6395 0H2C0.895429 0 0 0.89543 0 2Z" fill="var(--fill-0, white)"/>
</svg>
