<svg preserveAspectRatio="none" width="100%" height="100%" overflow="visible" style="display: block;" viewBox="0 0 9.51069 10.0759" fill="none" xmlns="http://www.w3.org/2000/svg">
<path id="Vector" d="M4.98922 10.0759C1.87096 10.0759 0.0974391 8.84806 0.0974391 6.60681V6.54835H2.20227V6.70426C2.20227 7.97105 2.96235 8.38033 4.98922 8.38033C6.87967 8.38033 7.44484 7.99054 7.44484 7.13302C7.44484 6.33397 6.97711 6.08061 5.59338 5.88572L2.94286 5.53491C1.11088 5.30104 0 4.52148 0 2.90388C0 1.20833 1.53964 0 4.52147 0C7.48382 0 9.27683 1.18884 9.27683 3.48855V3.54702H7.19148V3.43009C7.19148 2.28023 6.60681 1.67606 4.46301 1.67606C2.6895 1.67606 2.06585 2.06585 2.06585 2.98184C2.06585 3.74191 2.45563 4.01476 3.91731 4.20965L6.15857 4.52148C8.45829 4.81381 9.51069 5.59338 9.51069 7.19149C9.51069 9.00398 7.7177 10.0759 4.98922 10.0759Z" fill="var(--fill-0, white)"/>
</svg>
