<svg preserveAspectRatio="none" width="100%" height="100%" overflow="visible" style="display: block;" viewBox="0 0 1409 213.966" fill="none" xmlns="http://www.w3.org/2000/svg">
<g id="whyte films" style="mix-blend-mode:difference">
<path id="Vector" d="M1349.9 173.212C1309.15 173.212 1285.97 157.164 1285.97 127.871V127.107H1313.48V129.145C1313.48 145.702 1323.41 151.051 1349.9 151.051C1374.61 151.051 1382 145.956 1382 134.749C1382 124.305 1375.89 120.994 1357.8 118.446L1323.16 113.861C1299.21 110.805 1284.7 100.616 1284.7 79.474C1284.7 57.3133 1304.82 41.5205 1343.79 41.5205C1382.51 41.5205 1405.94 57.0585 1405.94 87.1157V87.8798H1378.69V86.3515C1378.69 71.3229 1371.05 63.4266 1343.03 63.4266C1319.85 63.4266 1311.7 68.521 1311.7 80.4929C1311.7 90.427 1316.79 93.9931 1335.89 96.5404L1365.19 100.616C1395.24 104.437 1409 114.626 1409 135.513C1409 159.202 1385.57 173.212 1349.9 173.212Z" fill="url(#paint0_linear_0_23)" fill-opacity="0.4"/>
<path id="Vector_2" d="M1069.05 170.664H1041.54V44.0677H1066.76V82.276H1068.29C1071.6 61.1341 1085.36 41.5205 1116.94 41.5205C1145.72 41.5205 1161.26 59.0963 1164.83 83.2948H1166.36C1169.67 61.6435 1183.93 41.5205 1216.03 41.5205C1248.89 41.5205 1265.44 63.936 1265.44 94.5026V170.664H1238.19V101.89C1238.19 76.9268 1228.25 66.2285 1203.8 66.2285C1176.8 66.2285 1167.12 79.9835 1167.12 108.003V170.664H1139.87V101.89C1139.87 76.9268 1130.19 66.2285 1105.73 66.2285C1078.48 66.2285 1069.05 79.9835 1069.05 108.003V170.664Z" fill="url(#paint1_linear_0_23)" fill-opacity="0.4"/>
<path id="Vector_3" d="M1016.07 170.663H988.559V0H1016.07V170.663Z" fill="url(#paint2_linear_0_23)" fill-opacity="0.4"/>
<path id="Vector_4" d="M875.003 170.663H847.493V66.9918H828.389V44.0668H847.748C850.805 16.3022 871.947 0 907.862 0H920.344V20.3777H903.532C883.409 20.3777 872.965 25.7269 874.494 44.0668H920.344V66.9918H875.003V170.663ZM963.137 29.293H935.627V0H963.137V29.293ZM963.137 170.663H935.627V44.0668H963.137V170.663Z" fill="url(#paint3_linear_0_23)" fill-opacity="0.4"/>
<path id="Vector_5" d="M708.215 173.212C666.695 173.212 639.44 149.777 639.44 107.493C639.44 68.0115 666.441 41.5205 707.706 41.5205C746.933 41.5205 773.678 63.1718 773.678 101.635C773.678 106.22 773.424 109.786 772.66 113.607H665.167C666.186 138.06 678.158 151.051 707.451 151.051C733.942 151.051 744.895 142.39 744.895 127.362V125.324H772.405V127.616C772.405 154.617 745.914 173.212 708.215 173.212ZM707.196 63.1718C679.177 63.1718 666.95 75.6532 665.422 98.3234H747.697V97.814C747.697 74.3796 734.197 63.1718 707.196 63.1718Z" fill="url(#paint4_linear_0_23)" fill-opacity="0.4"/>
<path id="Vector_6" d="M627.329 170.662H598.29C571.035 170.662 554.223 158.69 554.223 127.869V66.9904H532.827V44.0654H554.223V16.3008H581.479V44.0654H627.329V66.9904H581.479V126.34C581.479 141.879 588.611 145.954 604.404 145.954H627.329V170.662Z" fill="url(#paint5_linear_0_23)" fill-opacity="0.4"/>
<path id="Vector_7" d="M414.172 213.966H396.087V189.003H420.795C432.002 189.003 436.587 185.946 440.408 177.286L443.465 170.663L381.058 44.0664H411.879L444.229 111.313L456.71 141.625H458.748L470.72 111.058L500.522 44.0664H530.834L464.862 184.418C454.418 207.088 440.154 213.966 414.172 213.966Z" fill="url(#paint6_linear_0_23)" fill-opacity="0.4"/>
<path id="Vector_8" d="M263.347 170.663H235.837V0H263.347V82.7845H264.875C269.205 61.3879 284.743 41.5196 317.093 41.5196C351.99 41.5196 369.056 64.4445 369.056 95.2658V170.663H341.801V101.889C341.801 76.4165 330.338 66.2276 304.102 66.2276C274.045 66.2276 263.347 82.5298 263.347 109.276V170.663Z" fill="url(#paint7_linear_0_23)" fill-opacity="0.4"/>
<path id="Vector_9" d="M72.0862 170.663H37.9535L0 44.0664H28.5288L49.6707 115.898L55.5293 148.502H57.5671L66.9918 113.351L93.4828 44.0664H128.634L155.38 113.351L164.805 148.502H166.843L172.701 115.898L193.843 44.0664H221.862L183.4 170.663H149.267L121.502 97.8126L111.823 66.7366H109.785L100.106 97.8126L72.0862 170.663Z" fill="url(#paint8_linear_0_23)" fill-opacity="0.4"/>
</g>
<defs>
<linearGradient id="paint0_linear_0_23" x1="1355.14" y1="39.3375" x2="1355.14" y2="145.215" gradientUnits="userSpaceOnUse">
<stop stop-color="white"/>
<stop offset="1"/>
</linearGradient>
<linearGradient id="paint1_linear_0_23" x1="1168.43" y1="39.3797" x2="1168.43" y2="143.21" gradientUnits="userSpaceOnUse">
<stop stop-color="white"/>
<stop offset="1"/>
</linearGradient>
<linearGradient id="paint2_linear_0_23" x1="1004.15" y1="-2.8291" x2="1004.15" y2="134.382" gradientUnits="userSpaceOnUse">
<stop stop-color="white"/>
<stop offset="1"/>
</linearGradient>
<linearGradient id="paint3_linear_0_23" x1="904.752" y1="-2.8291" x2="904.752" y2="134.382" gradientUnits="userSpaceOnUse">
<stop stop-color="white"/>
<stop offset="1"/>
</linearGradient>
<linearGradient id="paint4_linear_0_23" x1="715.514" y1="39.3375" x2="715.514" y2="145.215" gradientUnits="userSpaceOnUse">
<stop stop-color="white"/>
<stop offset="1"/>
</linearGradient>
<linearGradient id="paint5_linear_0_23" x1="586.382" y1="13.7419" x2="586.382" y2="137.846" gradientUnits="userSpaceOnUse">
<stop stop-color="white"/>
<stop offset="1"/>
</linearGradient>
<linearGradient id="paint6_linear_0_23" x1="465.938" y1="41.25" x2="465.938" y2="177.847" gradientUnits="userSpaceOnUse">
<stop stop-color="white"/>
<stop offset="1"/>
</linearGradient>
<linearGradient id="paint7_linear_0_23" x1="311.333" y1="-2.8291" x2="311.333" y2="134.382" gradientUnits="userSpaceOnUse">
<stop stop-color="white"/>
<stop offset="1"/>
</linearGradient>
<linearGradient id="paint8_linear_0_23" x1="125.732" y1="41.9678" x2="125.732" y2="143.75" gradientUnits="userSpaceOnUse">
<stop stop-color="white"/>
<stop offset="1"/>
</linearGradient>
</defs>
</svg>
