<svg preserveAspectRatio="none" width="100%" height="100%" overflow="visible" style="display: block;" viewBox="0 0 10.2708 10.0759" fill="none" xmlns="http://www.w3.org/2000/svg">
<path id="Vector" d="M5.26206 10.0759C2.08534 10.0759 0 8.28288 0 5.04768C0 2.02687 2.06585 0 5.22309 0C8.22441 0 10.2708 1.65658 10.2708 4.59943C10.2708 4.95024 10.2513 5.22309 10.1928 5.51542H1.9684C2.04636 7.38638 2.96235 8.38033 5.2036 8.38033C7.23046 8.38033 8.0685 7.7177 8.0685 6.56784V6.41192H10.1733V6.58733C10.1733 8.65317 8.14645 10.0759 5.26206 10.0759ZM5.18411 1.65658C3.0403 1.65658 2.10483 2.61154 1.98789 4.34608H8.28288V4.3071C8.28288 2.5141 7.24996 1.65658 5.18411 1.65658Z" fill="var(--fill-0, white)"/>
</svg>
