<svg xmlns="http://www.w3.org/2000/svg" viewBox="0 0 576 159.298" fill="none" aria-hidden="true">
  <path d="M53.6681 127.059H28.2564L0 32.8077H21.2397L36.9798 86.2862L41.3415 110.56H42.8587L49.8753 84.3898L69.5979 32.8077H95.7682L115.68 84.3898L122.697 110.56H124.214L128.576 86.2862L144.316 32.8077H165.176L136.541 127.059H111.129L90.4583 72.8218L83.252 49.6857H81.7349L74.5285 72.8218L53.6681 127.059Z" fill="white"/>
  <path d="M196.061 127.059H175.58V4.55976e-06H196.061V61.633H197.199C200.423 45.7033 211.991 30.9113 236.075 30.9113C262.056 30.9113 274.762 47.9789 274.762 70.9254V127.059H254.47V75.856C254.47 56.892 245.937 49.3064 226.404 49.3064C204.026 49.3064 196.061 61.4434 196.061 81.3556V127.059Z" fill="white"/>
  <path d="M308.351 159.298H294.886V140.713H313.281C321.626 140.713 325.039 138.438 327.884 131.99L330.159 127.059L283.698 32.808H306.644L330.728 82.873L340.021 105.44H341.538L350.451 82.6834L372.639 32.808H395.206L346.089 137.3C338.314 154.178 327.694 159.298 308.351 159.298Z" fill="white"/>
  <path d="M467.046 127.059H445.427C425.136 127.059 412.619 118.146 412.619 95.1995V49.8755H396.69V32.8079H412.619V12.1371H432.911V32.8079H467.046V49.8755H432.911V94.0616C432.911 105.63 438.221 108.664 449.978 108.664H467.046V127.059Z" fill="white"/>
  <path d="M527.266 128.956C496.355 128.956 476.063 111.509 476.063 80.0289C476.063 50.6347 496.165 30.9121 526.887 30.9121C556.091 30.9121 576.003 47.0315 576.003 75.6672C576.003 79.0807 575.814 81.7357 575.245 84.5803H495.217C495.975 102.786 504.888 112.457 526.697 112.457C546.42 112.457 554.574 106.01 554.574 94.8208V93.3037H575.055V95.0105C575.055 115.112 555.333 128.956 527.266 128.956ZM526.507 47.0315C505.647 47.0315 496.544 56.3239 495.406 73.2019H556.66V72.8226C556.66 55.3757 546.609 47.0315 526.507 47.0315Z" fill="white"/>
</svg>
