<svg xmlns="http://www.w3.org/2000/svg" viewBox="0 0 148 16" fill="none" role="img" aria-label="whyte films">
  <!-- Icon (rotated -180°) -->
  <g transform="translate(0 1.1) scale(0.98) rotate(-180 14.458 6.976)">
    <path
      d="M0 2V11.9512C0 13.0558 0.895431 13.9512 2 13.9512H2.4695C4.02046 13.9512 4.98121 12.2624 4.18866 10.9292L2.37055 7.8709C1.578 6.53773 2.53875 4.84889 4.08971 4.84889H4.62221C6.04811 4.84889 7.3662 5.60795 8.08188 6.84125L10.812 11.5459C11.6455 12.9822 13.1804 13.8661 14.841 13.8661C16.2881 13.8661 17.1829 12.2884 16.44 11.0464L14.5434 7.87553C13.7461 6.54243 14.7065 4.84889 16.2598 4.84889H16.3587C18.1411 4.84889 19.7887 5.79772 20.6833 7.33933L23.3147 11.8738C24.0303 13.1071 25.3484 13.8661 26.7743 13.8661H26.9123C28.4656 13.8661 29.426 12.1726 28.6287 10.8395L23.8918 2.9201C22.8085 1.10886 20.8531 0 18.7426 0H16.901C15.5426 0 14.2868 0.723139 13.605 1.89807C13.0221 2.90264 11.564 2.89428 10.9678 1.89751C10.2694 0.72998 8.99995 0 7.6395 0H2C0.895429 0 0 0.89543 0 2Z"
      fill="white"
    />
  </g>
  <!-- Wordmark: whyte films -->
  <g transform="translate(34.5 0.2) scale(0.0985)">
    <path d="M53.6681 127.059H28.2564L0 32.8077H21.2397L36.9798 86.2862L41.3415 110.56H42.8587L49.8753 84.3898L69.5979 32.8077H95.7682L115.68 84.3898L122.697 110.56H124.214L128.576 86.2862L144.316 32.8077H165.176L136.541 127.059H111.129L90.4583 72.8218L83.252 49.6857H81.7349L74.5285 72.8218L53.6681 127.059Z" fill="white"/>
    <path d="M196.061 127.059H175.58V4.55976e-06H196.061V61.633H197.199C200.423 45.7033 211.991 30.9113 236.075 30.9113C262.056 30.9113 274.762 47.9789 274.762 70.9254V127.059H254.47V75.856C254.47 56.892 245.937 49.3064 226.404 49.3064C204.026 49.3064 196.061 61.4434 196.061 81.3556V127.059Z" fill="white"/>
    <path d="M308.351 159.298H294.886V140.713H313.281C321.626 140.713 325.039 138.438 327.884 131.99L330.159 127.059L283.698 32.808H306.644L330.728 82.873L340.021 105.44H341.538L350.451 82.6834L372.639 32.808H395.206L346.089 137.3C338.314 154.178 327.694 159.298 308.351 159.298Z" fill="white"/>
    <path d="M467.046 127.059H445.427C425.136 127.059 412.619 118.146 412.619 95.1995V49.8755H396.69V32.8079H412.619V12.1371H432.911V32.8079H467.046V49.8755H432.911V94.0616C432.911 105.63 438.221 108.664 449.978 108.664H467.046V127.059Z" fill="white"/>
    <path d="M527.266 128.956C496.355 128.956 476.063 111.509 476.063 80.0289C476.063 50.6347 496.165 30.9121 526.887 30.9121C556.091 30.9121 576.003 47.0315 576.003 75.6672C576.003 79.0807 575.814 81.7357 575.245 84.5803H495.217C495.975 102.786 504.888 112.457 526.697 112.457C546.42 112.457 554.574 106.01 554.574 94.8208V93.3037H575.055V95.0105C575.055 115.112 555.333 128.956 527.266 128.956ZM526.507 47.0315C505.647 47.0315 496.544 56.3239 495.406 73.2019H556.66V72.8226C556.66 55.3757 546.609 47.0315 526.507 47.0315Z" fill="white"/>
    <path d="M651.44 127.059H630.958V49.8753H616.735V32.8077H631.148C633.424 12.137 649.164 4.55976e-06 675.903 4.55976e-06H685.196V15.1712H672.679C657.698 15.1712 649.922 19.1537 651.06 32.8077H685.196V49.8753H651.44V127.059ZM717.055 21.8086H696.574V4.55976e-06H717.055V21.8086ZM717.055 127.059H696.574V32.8077H717.055V127.059Z" fill="white"/>
    <path d="M756.463 127.059H735.982V4.55976e-06H756.463V127.059Z" fill="white"/>
    <path d="M795.91 127.06H775.429V32.8085H794.203V61.2545H795.341C797.806 45.5144 808.047 30.9121 831.562 30.9121C852.992 30.9121 864.56 43.9973 867.214 62.0131H868.352C870.818 45.8937 881.438 30.9121 905.332 30.9121C929.796 30.9121 942.122 47.6005 942.122 70.3573V127.06H921.831V75.8568C921.831 57.2721 914.435 49.3072 896.229 49.3072C876.128 49.3072 868.921 59.5478 868.921 80.4082V127.06H848.63V75.8568C848.63 57.2721 841.423 49.3072 823.218 49.3072C802.927 49.3072 795.91 59.5478 795.91 80.4082V127.06Z" fill="white"/>
    <path d="M1005 128.956C974.661 128.956 957.404 117.009 957.404 95.2001V94.6312H977.885V96.1483C977.885 108.475 985.281 112.457 1005 112.457C1023.4 112.457 1028.9 108.665 1028.9 100.32C1028.9 92.5451 1024.35 90.0798 1010.88 88.1834L985.091 84.7699C967.265 82.4942 956.456 74.9086 956.456 59.1685C956.456 42.6698 971.437 30.9121 1000.45 30.9121C1029.28 30.9121 1046.72 42.4802 1046.72 64.8577V65.4266H1026.43V64.2888C1026.43 53.1 1020.74 47.2212 999.883 47.2212C982.626 47.2212 976.558 51.014 976.558 59.9271C976.558 67.323 980.35 69.978 994.573 71.8744L1016.38 74.9086C1038.76 77.7532 1049 85.3388 1049 100.889C1049 118.526 1031.55 128.956 1005 128.956Z" fill="white"/>
  </g>
</svg>
