<svg xmlns="http://www.w3.org/2000/svg" viewBox="616 0 433 159.298" fill="none" aria-hidden="true">
  <path d="M651.44 127.059H630.958V49.8753H616.735V32.8077H631.148C633.424 12.137 649.164 4.55976e-06 675.903 4.55976e-06H685.196V15.1712H672.679C657.698 15.1712 649.922 19.1537 651.06 32.8077H685.196V49.8753H651.44V127.059ZM717.055 21.8086H696.574V4.55976e-06H717.055V21.8086ZM717.055 127.059H696.574V32.8077H717.055V127.059Z" fill="white"/>
  <path d="M756.463 127.059H735.982V4.55976e-06H756.463V127.059Z" fill="white"/>
  <path d="M795.91 127.06H775.429V32.8085H794.203V61.2545H795.341C797.806 45.5144 808.047 30.9121 831.562 30.9121C852.992 30.9121 864.56 43.9973 867.214 62.0131H868.352C870.818 45.8937 881.438 30.9121 905.332 30.9121C929.796 30.9121 942.122 47.6005 942.122 70.3573V127.06H921.831V75.8568C921.831 57.2721 914.435 49.3072 896.229 49.3072C876.128 49.3072 868.921 59.5478 868.921 80.4082V127.06H848.63V75.8568C848.63 57.2721 841.423 49.3072 823.218 49.3072C802.927 49.3072 795.91 59.5478 795.91 80.4082V127.06Z" fill="white"/>
  <path d="M1005 128.956C974.661 128.956 957.404 117.009 957.404 95.2001V94.6312H977.885V96.1483C977.885 108.475 985.281 112.457 1005 112.457C1023.4 112.457 1028.9 108.665 1028.9 100.32C1028.9 92.5451 1024.35 90.0798 1010.88 88.1834L985.091 84.7699C967.265 82.4942 956.456 74.9086 956.456 59.1685C956.456 42.6698 971.437 30.9121 1000.45 30.9121C1029.28 30.9121 1046.72 42.4802 1046.72 64.8577V65.4266H1026.43V64.2888C1026.43 53.1 1020.74 47.2212 999.883 47.2212C982.626 47.2212 976.558 51.014 976.558 59.9271C976.558 67.323 980.35 69.978 994.573 71.8744L1016.38 74.9086C1038.76 77.7532 1049 85.3388 1049 100.889C1049 118.526 1031.55 128.956 1005 128.956Z" fill="white"/>
</svg>
